<mxfile host="app.diagrams.net" modified="2024-03-23T17:19:07.152Z" agent="Mozilla/5.0 (Windows NT 10.0; Win64; x64) AppleWebKit/537.36 (KHTML, like Gecko) Chrome/122.0.0.0 Safari/537.36 OPR/108.0.0.0" etag="LlMAtKpaPQsCQm7L-RFc" version="24.0.7" type="device">
  <diagram name="Page-1" id="929967ad-93f9-6ef4-fab6-5d389245f69c">
    <mxGraphModel dx="987" dy="564" grid="1" gridSize="10" guides="1" tooltips="1" connect="1" arrows="1" fold="1" page="1" pageScale="1.5" pageWidth="1169" pageHeight="826" background="none" math="0" shadow="0">
      <root>
        <mxCell id="0" style=";html=1;" />
        <mxCell id="1" style=";html=1;" parent="0" />
        <mxCell id="iyU5Vt9K39YpGKEKfuWR-30" style="edgeStyle=orthogonalEdgeStyle;rounded=0;orthogonalLoop=1;jettySize=auto;html=1;entryX=0;entryY=0.5;entryDx=0;entryDy=0;" edge="1" parent="1" source="I_qi69k2ZvE_nqY-SCT1-5" target="iyU5Vt9K39YpGKEKfuWR-10">
          <mxGeometry relative="1" as="geometry" />
        </mxCell>
        <mxCell id="I_qi69k2ZvE_nqY-SCT1-5" value="FIELD" style="swimlane;fontStyle=0;childLayout=stackLayout;horizontal=1;startSize=26;fillColor=none;horizontalStack=0;resizeParent=1;resizeParentMax=0;resizeLast=0;collapsible=1;marginBottom=0;whiteSpace=wrap;html=1;" parent="1" vertex="1">
          <mxGeometry x="944.93" y="780" width="150" height="100" as="geometry" />
        </mxCell>
        <mxCell id="I_qi69k2ZvE_nqY-SCT1-6" value="Name" style="text;strokeColor=none;fillColor=none;align=left;verticalAlign=top;spacingLeft=4;spacingRight=4;overflow=hidden;rotatable=0;points=[[0,0.5],[1,0.5]];portConstraint=eastwest;whiteSpace=wrap;html=1;" parent="I_qi69k2ZvE_nqY-SCT1-5" vertex="1">
          <mxGeometry y="26" width="150" height="26" as="geometry" />
        </mxCell>
        <mxCell id="I_qi69k2ZvE_nqY-SCT1-7" value="Phone" style="text;strokeColor=none;fillColor=none;align=left;verticalAlign=top;spacingLeft=4;spacingRight=4;overflow=hidden;rotatable=0;points=[[0,0.5],[1,0.5]];portConstraint=eastwest;whiteSpace=wrap;html=1;" parent="I_qi69k2ZvE_nqY-SCT1-5" vertex="1">
          <mxGeometry y="52" width="150" height="26" as="geometry" />
        </mxCell>
        <mxCell id="I_qi69k2ZvE_nqY-SCT1-8" value="Birthday" style="text;strokeColor=none;fillColor=none;align=left;verticalAlign=top;spacingLeft=4;spacingRight=4;overflow=hidden;rotatable=0;points=[[0,0.5],[1,0.5]];portConstraint=eastwest;whiteSpace=wrap;html=1;" parent="I_qi69k2ZvE_nqY-SCT1-5" vertex="1">
          <mxGeometry y="78" width="150" height="22" as="geometry" />
        </mxCell>
        <mxCell id="I_qi69k2ZvE_nqY-SCT1-9" value="RECORD" style="swimlane;fontStyle=0;childLayout=stackLayout;horizontal=1;startSize=26;fillColor=none;horizontalStack=0;resizeParent=1;resizeParentMax=0;resizeLast=0;collapsible=1;marginBottom=0;whiteSpace=wrap;html=1;" parent="1" vertex="1">
          <mxGeometry x="779.93" y="40" width="140" height="130" as="geometry" />
        </mxCell>
        <mxCell id="I_qi69k2ZvE_nqY-SCT1-11" value="add phone" style="text;strokeColor=none;fillColor=none;align=left;verticalAlign=top;spacingLeft=4;spacingRight=4;overflow=hidden;rotatable=0;points=[[0,0.5],[1,0.5]];portConstraint=eastwest;whiteSpace=wrap;html=1;" parent="I_qi69k2ZvE_nqY-SCT1-9" vertex="1">
          <mxGeometry y="26" width="140" height="26" as="geometry" />
        </mxCell>
        <mxCell id="I_qi69k2ZvE_nqY-SCT1-61" style="edgeStyle=orthogonalEdgeStyle;rounded=0;orthogonalLoop=1;jettySize=auto;html=1;exitX=1;exitY=0.5;exitDx=0;exitDy=0;" parent="I_qi69k2ZvE_nqY-SCT1-9" source="I_qi69k2ZvE_nqY-SCT1-20" edge="1">
          <mxGeometry relative="1" as="geometry">
            <mxPoint x="310" y="65" as="targetPoint" />
          </mxGeometry>
        </mxCell>
        <mxCell id="iyU5Vt9K39YpGKEKfuWR-39" style="edgeStyle=orthogonalEdgeStyle;rounded=0;orthogonalLoop=1;jettySize=auto;html=1;exitX=0;exitY=0.5;exitDx=0;exitDy=0;" edge="1" parent="I_qi69k2ZvE_nqY-SCT1-9" source="I_qi69k2ZvE_nqY-SCT1-20">
          <mxGeometry relative="1" as="geometry">
            <mxPoint x="-459.92999999999995" y="65.33333333333337" as="targetPoint" />
          </mxGeometry>
        </mxCell>
        <mxCell id="I_qi69k2ZvE_nqY-SCT1-20" value="edit phone" style="text;strokeColor=none;fillColor=none;align=left;verticalAlign=top;spacingLeft=4;spacingRight=4;overflow=hidden;rotatable=0;points=[[0,0.5],[1,0.5]];portConstraint=eastwest;whiteSpace=wrap;html=1;" parent="I_qi69k2ZvE_nqY-SCT1-9" vertex="1">
          <mxGeometry y="52" width="140" height="26" as="geometry" />
        </mxCell>
        <mxCell id="I_qi69k2ZvE_nqY-SCT1-62" style="edgeStyle=orthogonalEdgeStyle;rounded=0;orthogonalLoop=1;jettySize=auto;html=1;exitX=1;exitY=0.5;exitDx=0;exitDy=0;" parent="I_qi69k2ZvE_nqY-SCT1-9" source="I_qi69k2ZvE_nqY-SCT1-19" edge="1">
          <mxGeometry relative="1" as="geometry">
            <mxPoint x="310" y="91" as="targetPoint" />
          </mxGeometry>
        </mxCell>
        <mxCell id="iyU5Vt9K39YpGKEKfuWR-40" style="edgeStyle=orthogonalEdgeStyle;rounded=0;orthogonalLoop=1;jettySize=auto;html=1;exitX=0;exitY=0.5;exitDx=0;exitDy=0;" edge="1" parent="I_qi69k2ZvE_nqY-SCT1-9" source="I_qi69k2ZvE_nqY-SCT1-19">
          <mxGeometry relative="1" as="geometry">
            <mxPoint x="-459.92999999999995" y="90.66666666666663" as="targetPoint" />
          </mxGeometry>
        </mxCell>
        <mxCell id="I_qi69k2ZvE_nqY-SCT1-19" value="delete phone" style="text;strokeColor=none;fillColor=none;align=left;verticalAlign=top;spacingLeft=4;spacingRight=4;overflow=hidden;rotatable=0;points=[[0,0.5],[1,0.5]];portConstraint=eastwest;whiteSpace=wrap;html=1;" parent="I_qi69k2ZvE_nqY-SCT1-9" vertex="1">
          <mxGeometry y="78" width="140" height="26" as="geometry" />
        </mxCell>
        <mxCell id="I_qi69k2ZvE_nqY-SCT1-21" value="user birthday" style="text;strokeColor=none;fillColor=none;align=left;verticalAlign=top;spacingLeft=4;spacingRight=4;overflow=hidden;rotatable=0;points=[[0,0.5],[1,0.5]];portConstraint=eastwest;whiteSpace=wrap;html=1;" parent="I_qi69k2ZvE_nqY-SCT1-9" vertex="1">
          <mxGeometry y="104" width="140" height="26" as="geometry" />
        </mxCell>
        <mxCell id="I_qi69k2ZvE_nqY-SCT1-22" value="ADRESSBOOK" style="swimlane;fontStyle=0;childLayout=stackLayout;horizontal=1;startSize=26;fillColor=none;horizontalStack=0;resizeParent=1;resizeParentMax=0;resizeLast=0;collapsible=1;marginBottom=0;whiteSpace=wrap;html=1;" parent="1" vertex="1">
          <mxGeometry x="759.93" y="250" width="190" height="130" as="geometry" />
        </mxCell>
        <mxCell id="I_qi69k2ZvE_nqY-SCT1-23" value="add contact" style="text;strokeColor=none;fillColor=none;align=left;verticalAlign=top;spacingLeft=4;spacingRight=4;overflow=hidden;rotatable=0;points=[[0,0.5],[1,0.5]];portConstraint=eastwest;whiteSpace=wrap;html=1;" parent="I_qi69k2ZvE_nqY-SCT1-22" vertex="1">
          <mxGeometry y="26" width="190" height="26" as="geometry" />
        </mxCell>
        <mxCell id="iyU5Vt9K39YpGKEKfuWR-24" style="edgeStyle=orthogonalEdgeStyle;rounded=0;orthogonalLoop=1;jettySize=auto;html=1;exitX=0;exitY=0.5;exitDx=0;exitDy=0;" edge="1" parent="I_qi69k2ZvE_nqY-SCT1-22" source="I_qi69k2ZvE_nqY-SCT1-24">
          <mxGeometry relative="1" as="geometry">
            <mxPoint x="-370" y="64.66666666666663" as="targetPoint" />
          </mxGeometry>
        </mxCell>
        <mxCell id="I_qi69k2ZvE_nqY-SCT1-24" value="edit contact" style="text;strokeColor=none;fillColor=none;align=left;verticalAlign=top;spacingLeft=4;spacingRight=4;overflow=hidden;rotatable=0;points=[[0,0.5],[1,0.5]];portConstraint=eastwest;whiteSpace=wrap;html=1;" parent="I_qi69k2ZvE_nqY-SCT1-22" vertex="1">
          <mxGeometry y="52" width="190" height="26" as="geometry" />
        </mxCell>
        <mxCell id="I_qi69k2ZvE_nqY-SCT1-59" style="edgeStyle=orthogonalEdgeStyle;rounded=0;orthogonalLoop=1;jettySize=auto;html=1;exitX=1;exitY=0.5;exitDx=0;exitDy=0;" parent="I_qi69k2ZvE_nqY-SCT1-22" source="I_qi69k2ZvE_nqY-SCT1-25" edge="1">
          <mxGeometry relative="1" as="geometry">
            <mxPoint x="300" y="91" as="targetPoint" />
          </mxGeometry>
        </mxCell>
        <mxCell id="iyU5Vt9K39YpGKEKfuWR-25" style="edgeStyle=orthogonalEdgeStyle;rounded=0;orthogonalLoop=1;jettySize=auto;html=1;exitX=0;exitY=0.5;exitDx=0;exitDy=0;" edge="1" parent="I_qi69k2ZvE_nqY-SCT1-22" source="I_qi69k2ZvE_nqY-SCT1-25">
          <mxGeometry relative="1" as="geometry">
            <mxPoint x="-370" y="91.33333333333337" as="targetPoint" />
          </mxGeometry>
        </mxCell>
        <mxCell id="I_qi69k2ZvE_nqY-SCT1-25" value="find contact" style="text;strokeColor=none;fillColor=none;align=left;verticalAlign=top;spacingLeft=4;spacingRight=4;overflow=hidden;rotatable=0;points=[[0,0.5],[1,0.5]];portConstraint=eastwest;whiteSpace=wrap;html=1;" parent="I_qi69k2ZvE_nqY-SCT1-22" vertex="1">
          <mxGeometry y="78" width="190" height="26" as="geometry" />
        </mxCell>
        <mxCell id="I_qi69k2ZvE_nqY-SCT1-58" style="edgeStyle=orthogonalEdgeStyle;rounded=0;orthogonalLoop=1;jettySize=auto;html=1;exitX=1;exitY=0.5;exitDx=0;exitDy=0;" parent="I_qi69k2ZvE_nqY-SCT1-22" source="I_qi69k2ZvE_nqY-SCT1-26" edge="1">
          <mxGeometry relative="1" as="geometry">
            <mxPoint x="300" y="117" as="targetPoint" />
          </mxGeometry>
        </mxCell>
        <mxCell id="iyU5Vt9K39YpGKEKfuWR-26" style="edgeStyle=orthogonalEdgeStyle;rounded=0;orthogonalLoop=1;jettySize=auto;html=1;exitX=0;exitY=0.5;exitDx=0;exitDy=0;" edge="1" parent="I_qi69k2ZvE_nqY-SCT1-22" source="I_qi69k2ZvE_nqY-SCT1-26">
          <mxGeometry relative="1" as="geometry">
            <mxPoint x="-370" y="116.66666666666663" as="targetPoint" />
          </mxGeometry>
        </mxCell>
        <mxCell id="I_qi69k2ZvE_nqY-SCT1-26" value="delete contact" style="text;strokeColor=none;fillColor=none;align=left;verticalAlign=top;spacingLeft=4;spacingRight=4;overflow=hidden;rotatable=0;points=[[0,0.5],[1,0.5]];portConstraint=eastwest;whiteSpace=wrap;html=1;" parent="I_qi69k2ZvE_nqY-SCT1-22" vertex="1">
          <mxGeometry y="104" width="190" height="26" as="geometry" />
        </mxCell>
        <mxCell id="I_qi69k2ZvE_nqY-SCT1-43" style="edgeStyle=orthogonalEdgeStyle;rounded=0;orthogonalLoop=1;jettySize=auto;html=1;exitX=0.5;exitY=1;exitDx=0;exitDy=0;" parent="1" edge="1">
          <mxGeometry relative="1" as="geometry">
            <mxPoint x="419.93" y="192" as="sourcePoint" />
            <mxPoint x="419.93" y="192" as="targetPoint" />
          </mxGeometry>
        </mxCell>
        <mxCell id="I_qi69k2ZvE_nqY-SCT1-44" value="BOOK" style="swimlane;fontStyle=0;childLayout=stackLayout;horizontal=1;startSize=26;fillColor=none;horizontalStack=0;resizeParent=1;resizeParentMax=0;resizeLast=0;collapsible=1;marginBottom=0;whiteSpace=wrap;html=1;" parent="1" vertex="1">
          <mxGeometry x="754.93" y="490" width="190" height="260" as="geometry" />
        </mxCell>
        <mxCell id="I_qi69k2ZvE_nqY-SCT1-45" value="command &amp;gt; &quot;hello&quot;" style="text;strokeColor=none;fillColor=none;align=left;verticalAlign=top;spacingLeft=4;spacingRight=4;overflow=hidden;rotatable=0;points=[[0,0.5],[1,0.5]];portConstraint=eastwest;whiteSpace=wrap;html=1;" parent="I_qi69k2ZvE_nqY-SCT1-44" vertex="1">
          <mxGeometry y="26" width="190" height="26" as="geometry" />
        </mxCell>
        <mxCell id="I_qi69k2ZvE_nqY-SCT1-46" value="command &amp;gt; &quot;exit&quot; / &quot;close&quot;" style="text;strokeColor=none;fillColor=none;align=left;verticalAlign=top;spacingLeft=4;spacingRight=4;overflow=hidden;rotatable=0;points=[[0,0.5],[1,0.5]];portConstraint=eastwest;whiteSpace=wrap;html=1;" parent="I_qi69k2ZvE_nqY-SCT1-44" vertex="1">
          <mxGeometry y="52" width="190" height="26" as="geometry" />
        </mxCell>
        <mxCell id="I_qi69k2ZvE_nqY-SCT1-47" value="command &amp;gt; &quot;add&quot;" style="text;strokeColor=none;fillColor=none;align=left;verticalAlign=top;spacingLeft=4;spacingRight=4;overflow=hidden;rotatable=0;points=[[0,0.5],[1,0.5]];portConstraint=eastwest;whiteSpace=wrap;html=1;" parent="I_qi69k2ZvE_nqY-SCT1-44" vertex="1">
          <mxGeometry y="78" width="190" height="26" as="geometry" />
        </mxCell>
        <mxCell id="I_qi69k2ZvE_nqY-SCT1-48" value="command &amp;gt; &quot;change&quot;" style="text;strokeColor=none;fillColor=none;align=left;verticalAlign=top;spacingLeft=4;spacingRight=4;overflow=hidden;rotatable=0;points=[[0,0.5],[1,0.5]];portConstraint=eastwest;whiteSpace=wrap;html=1;" parent="I_qi69k2ZvE_nqY-SCT1-44" vertex="1">
          <mxGeometry y="104" width="190" height="26" as="geometry" />
        </mxCell>
        <mxCell id="I_qi69k2ZvE_nqY-SCT1-49" value="command &amp;gt; &quot;phone&quot;" style="text;strokeColor=none;fillColor=none;align=left;verticalAlign=top;spacingLeft=4;spacingRight=4;overflow=hidden;rotatable=0;points=[[0,0.5],[1,0.5]];portConstraint=eastwest;whiteSpace=wrap;html=1;" parent="I_qi69k2ZvE_nqY-SCT1-44" vertex="1">
          <mxGeometry y="130" width="190" height="26" as="geometry" />
        </mxCell>
        <mxCell id="I_qi69k2ZvE_nqY-SCT1-51" value="command &amp;gt; &quot;all&quot;" style="text;strokeColor=none;fillColor=none;align=left;verticalAlign=top;spacingLeft=4;spacingRight=4;overflow=hidden;rotatable=0;points=[[0,0.5],[1,0.5]];portConstraint=eastwest;whiteSpace=wrap;html=1;" parent="I_qi69k2ZvE_nqY-SCT1-44" vertex="1">
          <mxGeometry y="156" width="190" height="26" as="geometry" />
        </mxCell>
        <mxCell id="I_qi69k2ZvE_nqY-SCT1-50" value="command &amp;gt; &quot;add_birthday&quot;" style="text;strokeColor=none;fillColor=none;align=left;verticalAlign=top;spacingLeft=4;spacingRight=4;overflow=hidden;rotatable=0;points=[[0,0.5],[1,0.5]];portConstraint=eastwest;whiteSpace=wrap;html=1;" parent="I_qi69k2ZvE_nqY-SCT1-44" vertex="1">
          <mxGeometry y="182" width="190" height="26" as="geometry" />
        </mxCell>
        <mxCell id="I_qi69k2ZvE_nqY-SCT1-52" value="command &amp;gt; &quot;show_birthday&quot;" style="text;strokeColor=none;fillColor=none;align=left;verticalAlign=top;spacingLeft=4;spacingRight=4;overflow=hidden;rotatable=0;points=[[0,0.5],[1,0.5]];portConstraint=eastwest;whiteSpace=wrap;html=1;" parent="I_qi69k2ZvE_nqY-SCT1-44" vertex="1">
          <mxGeometry y="208" width="190" height="26" as="geometry" />
        </mxCell>
        <mxCell id="I_qi69k2ZvE_nqY-SCT1-53" value="command &amp;gt; &quot;birthday&quot;" style="text;strokeColor=none;fillColor=none;align=left;verticalAlign=top;spacingLeft=4;spacingRight=4;overflow=hidden;rotatable=0;points=[[0,0.5],[1,0.5]];portConstraint=eastwest;whiteSpace=wrap;html=1;" parent="I_qi69k2ZvE_nqY-SCT1-44" vertex="1">
          <mxGeometry y="234" width="190" height="26" as="geometry" />
        </mxCell>
        <mxCell id="I_qi69k2ZvE_nqY-SCT1-56" style="edgeStyle=orthogonalEdgeStyle;rounded=0;orthogonalLoop=1;jettySize=auto;html=1;exitX=1;exitY=0.5;exitDx=0;exitDy=0;entryX=1;entryY=0.5;entryDx=0;entryDy=0;" parent="1" source="I_qi69k2ZvE_nqY-SCT1-23" target="I_qi69k2ZvE_nqY-SCT1-47" edge="1">
          <mxGeometry relative="1" as="geometry" />
        </mxCell>
        <mxCell id="I_qi69k2ZvE_nqY-SCT1-57" style="edgeStyle=orthogonalEdgeStyle;rounded=0;orthogonalLoop=1;jettySize=auto;html=1;entryX=1;entryY=0.5;entryDx=0;entryDy=0;" parent="1" source="I_qi69k2ZvE_nqY-SCT1-24" target="I_qi69k2ZvE_nqY-SCT1-48" edge="1">
          <mxGeometry relative="1" as="geometry">
            <Array as="points">
              <mxPoint x="1059.93" y="315" />
              <mxPoint x="1059.93" y="607" />
            </Array>
          </mxGeometry>
        </mxCell>
        <mxCell id="I_qi69k2ZvE_nqY-SCT1-60" style="edgeStyle=orthogonalEdgeStyle;rounded=0;orthogonalLoop=1;jettySize=auto;html=1;entryX=1;entryY=0.5;entryDx=0;entryDy=0;" parent="1" source="I_qi69k2ZvE_nqY-SCT1-11" target="I_qi69k2ZvE_nqY-SCT1-49" edge="1">
          <mxGeometry relative="1" as="geometry">
            <Array as="points">
              <mxPoint x="1089.93" y="79" />
              <mxPoint x="1089.93" y="633" />
            </Array>
          </mxGeometry>
        </mxCell>
        <mxCell id="I_qi69k2ZvE_nqY-SCT1-71" style="edgeStyle=orthogonalEdgeStyle;rounded=0;orthogonalLoop=1;jettySize=auto;html=1;exitX=1;exitY=0.5;exitDx=0;exitDy=0;entryX=1;entryY=0.5;entryDx=0;entryDy=0;" parent="1" source="I_qi69k2ZvE_nqY-SCT1-21" target="I_qi69k2ZvE_nqY-SCT1-53" edge="1">
          <mxGeometry relative="1" as="geometry">
            <Array as="points">
              <mxPoint x="1130" y="157" />
              <mxPoint x="1130" y="737" />
            </Array>
            <mxPoint x="960" y="737" as="targetPoint" />
          </mxGeometry>
        </mxCell>
        <mxCell id="I_qi69k2ZvE_nqY-SCT1-72" value="USER" style="rhombus;whiteSpace=wrap;html=1;" parent="1" vertex="1">
          <mxGeometry x="680" y="1090" width="200" height="140" as="geometry" />
        </mxCell>
        <mxCell id="I_qi69k2ZvE_nqY-SCT1-78" value="" style="endArrow=classic;html=1;rounded=0;exitX=0.439;exitY=1.141;exitDx=0;exitDy=0;exitPerimeter=0;entryX=0.5;entryY=0;entryDx=0;entryDy=0;" parent="1" source="I_qi69k2ZvE_nqY-SCT1-53" target="I_qi69k2ZvE_nqY-SCT1-5" edge="1">
          <mxGeometry width="50" height="50" relative="1" as="geometry">
            <mxPoint x="859.93" y="860" as="sourcePoint" />
            <mxPoint x="909.93" y="810" as="targetPoint" />
          </mxGeometry>
        </mxCell>
        <mxCell id="I_qi69k2ZvE_nqY-SCT1-79" value="" style="endArrow=classic;html=1;rounded=0;exitX=0.512;exitY=1.115;exitDx=0;exitDy=0;exitPerimeter=0;entryX=0.5;entryY=0;entryDx=0;entryDy=0;" parent="1" source="iyU5Vt9K39YpGKEKfuWR-9" target="I_qi69k2ZvE_nqY-SCT1-72" edge="1">
          <mxGeometry width="50" height="50" relative="1" as="geometry">
            <mxPoint x="859.93" y="960" as="sourcePoint" />
            <mxPoint x="840" y="1010" as="targetPoint" />
            <Array as="points">
              <mxPoint x="1027" y="1030" />
              <mxPoint x="780" y="1030" />
            </Array>
          </mxGeometry>
        </mxCell>
        <mxCell id="iyU5Vt9K39YpGKEKfuWR-9" value="INFOBOT" style="swimlane;fontStyle=0;childLayout=stackLayout;horizontal=1;startSize=26;fillColor=none;horizontalStack=0;resizeParent=1;resizeParentMax=0;resizeLast=0;collapsible=1;marginBottom=0;whiteSpace=wrap;html=1;" vertex="1" parent="1">
          <mxGeometry x="949.93" y="920" width="150" height="78" as="geometry" />
        </mxCell>
        <mxCell id="iyU5Vt9K39YpGKEKfuWR-10" value="Show_info" style="text;strokeColor=none;fillColor=none;align=left;verticalAlign=top;spacingLeft=4;spacingRight=4;overflow=hidden;rotatable=0;points=[[0,0.5],[1,0.5]];portConstraint=eastwest;whiteSpace=wrap;html=1;" vertex="1" parent="iyU5Vt9K39YpGKEKfuWR-9">
          <mxGeometry y="26" width="150" height="26" as="geometry" />
        </mxCell>
        <mxCell id="iyU5Vt9K39YpGKEKfuWR-11" value="HELP" style="text;strokeColor=none;fillColor=none;align=left;verticalAlign=top;spacingLeft=4;spacingRight=4;overflow=hidden;rotatable=0;points=[[0,0.5],[1,0.5]];portConstraint=eastwest;whiteSpace=wrap;html=1;" vertex="1" parent="iyU5Vt9K39YpGKEKfuWR-9">
          <mxGeometry y="52" width="150" height="26" as="geometry" />
        </mxCell>
        <mxCell id="iyU5Vt9K39YpGKEKfuWR-23" style="edgeStyle=orthogonalEdgeStyle;rounded=0;orthogonalLoop=1;jettySize=auto;html=1;exitX=0;exitY=0.5;exitDx=0;exitDy=0;entryX=0;entryY=0.5;entryDx=0;entryDy=0;" edge="1" parent="1" source="I_qi69k2ZvE_nqY-SCT1-23" target="iyU5Vt9K39YpGKEKfuWR-11">
          <mxGeometry relative="1" as="geometry">
            <Array as="points">
              <mxPoint x="389.93" y="289" />
              <mxPoint x="389.93" y="985" />
            </Array>
          </mxGeometry>
        </mxCell>
        <mxCell id="iyU5Vt9K39YpGKEKfuWR-35" style="edgeStyle=orthogonalEdgeStyle;rounded=0;orthogonalLoop=1;jettySize=auto;html=1;" edge="1" parent="1" source="iyU5Vt9K39YpGKEKfuWR-31" target="I_qi69k2ZvE_nqY-SCT1-72">
          <mxGeometry relative="1" as="geometry">
            <Array as="points">
              <mxPoint x="510" y="1030" />
              <mxPoint x="780" y="1030" />
            </Array>
          </mxGeometry>
        </mxCell>
        <mxCell id="iyU5Vt9K39YpGKEKfuWR-31" value="ABSTRACTRECORD" style="swimlane;fontStyle=0;childLayout=stackLayout;horizontal=1;startSize=26;fillColor=none;horizontalStack=0;resizeParent=1;resizeParentMax=0;resizeLast=0;collapsible=1;marginBottom=0;whiteSpace=wrap;html=1;" vertex="1" parent="1">
          <mxGeometry x="440" y="850" width="140" height="78" as="geometry" />
        </mxCell>
        <mxCell id="iyU5Vt9K39YpGKEKfuWR-32" value="Phone_Info" style="text;strokeColor=none;fillColor=none;align=left;verticalAlign=top;spacingLeft=4;spacingRight=4;overflow=hidden;rotatable=0;points=[[0,0.5],[1,0.5]];portConstraint=eastwest;whiteSpace=wrap;html=1;" vertex="1" parent="iyU5Vt9K39YpGKEKfuWR-31">
          <mxGeometry y="26" width="140" height="26" as="geometry" />
        </mxCell>
        <mxCell id="iyU5Vt9K39YpGKEKfuWR-33" value="BDay_Info" style="text;strokeColor=none;fillColor=none;align=left;verticalAlign=top;spacingLeft=4;spacingRight=4;overflow=hidden;rotatable=0;points=[[0,0.5],[1,0.5]];portConstraint=eastwest;whiteSpace=wrap;html=1;" vertex="1" parent="iyU5Vt9K39YpGKEKfuWR-31">
          <mxGeometry y="52" width="140" height="26" as="geometry" />
        </mxCell>
        <mxCell id="iyU5Vt9K39YpGKEKfuWR-38" style="edgeStyle=orthogonalEdgeStyle;rounded=0;orthogonalLoop=1;jettySize=auto;html=1;entryX=0;entryY=0.5;entryDx=0;entryDy=0;" edge="1" parent="1" source="I_qi69k2ZvE_nqY-SCT1-11" target="iyU5Vt9K39YpGKEKfuWR-32">
          <mxGeometry relative="1" as="geometry">
            <Array as="points">
              <mxPoint x="320" y="79" />
              <mxPoint x="320" y="889" />
            </Array>
          </mxGeometry>
        </mxCell>
        <mxCell id="iyU5Vt9K39YpGKEKfuWR-45" value="" style="endArrow=classic;html=1;rounded=0;entryX=1;entryY=0.5;entryDx=0;entryDy=0;" edge="1" parent="1" target="I_qi69k2ZvE_nqY-SCT1-50">
          <mxGeometry width="50" height="50" relative="1" as="geometry">
            <mxPoint x="1130" y="685" as="sourcePoint" />
            <mxPoint x="980" y="650" as="targetPoint" />
          </mxGeometry>
        </mxCell>
        <mxCell id="iyU5Vt9K39YpGKEKfuWR-46" value="" style="endArrow=classic;html=1;rounded=0;entryX=1;entryY=0.5;entryDx=0;entryDy=0;" edge="1" parent="1">
          <mxGeometry width="50" height="50" relative="1" as="geometry">
            <mxPoint x="1129.93" y="710" as="sourcePoint" />
            <mxPoint x="944.93" y="710" as="targetPoint" />
          </mxGeometry>
        </mxCell>
        <mxCell id="iyU5Vt9K39YpGKEKfuWR-47" style="edgeStyle=orthogonalEdgeStyle;rounded=0;orthogonalLoop=1;jettySize=auto;html=1;exitX=0;exitY=0.5;exitDx=0;exitDy=0;entryX=0;entryY=0.5;entryDx=0;entryDy=0;" edge="1" parent="1" source="I_qi69k2ZvE_nqY-SCT1-21" target="iyU5Vt9K39YpGKEKfuWR-33">
          <mxGeometry relative="1" as="geometry" />
        </mxCell>
      </root>
    </mxGraphModel>
  </diagram>
</mxfile>
